<svg width="26" height="26" viewBox="0 0 26 26" fill="none" xmlns="http://www.w3.org/2000/svg">
<circle cx="13" cy="13" r="13" fill="#FF007A" fill-opacity="0.5"/>
<g clip-path="url(#clip0_161_8020)">
<path d="M19.5429 11.7189H16.9769V10.7509H17.1171C17.367 10.7509 17.5742 10.5358 17.5742 10.2765V5.97448C17.5742 5.7151 17.367 5.5 17.1171 5.5H8.88289C8.633 5.5 8.42577 5.7151 8.42577 5.97448V10.2765C8.42577 10.5358 8.633 10.7509 8.88289 10.7509H9.02307V11.7189H6.45712C6.20723 11.7189 6 11.934 6 12.1934V13.9015C6 14.1609 6.20723 14.376 6.45712 14.376H7.00566V20.0318C7.00566 20.2912 7.21289 20.5063 7.46278 20.5063H18.5372C18.7871 20.5063 18.9943 20.2912 18.9943 20.0318V14.376H19.5429C19.7928 14.376 20 14.1609 20 13.9015V12.1934C20 11.934 19.7928 11.7189 19.5429 11.7189ZM19.0858 13.4207H6.91424V12.6615H19.0858V13.4207ZM10.8637 19.551V16.5143H12.5398V19.551H10.8637ZM13.4602 19.551V16.5143H15.1363V19.551H13.4602ZM18.0801 19.551H16.0505V16.0399C16.0505 15.7805 15.8433 15.5654 15.5934 15.5654H10.4066C10.1567 15.5654 9.9495 15.7805 9.9495 16.0399V19.551H7.9199V14.3697H18.0801V19.551ZM9.34001 9.80198V6.44897H16.66V9.80198H9.34001ZM11.9182 10.7509H14.0758V11.7189H11.9182V10.7509ZM16.0627 11.7189H14.9961V10.7509H16.0627V11.7189ZM9.93731 10.7509H11.0039V11.7189H9.93731V10.7509Z" fill="white"/>
<path d="M12.5833 9.45351C12.5833 9.45351 12.6077 9.4029 12.6077 9.36494V9.21944C12.6077 9.18148 12.6016 9.14985 12.5833 9.13087C12.565 9.11189 12.5345 9.09923 12.4919 9.09923H11.4131C11.4131 9.03597 11.4253 8.97903 11.4557 8.91577C11.4801 8.85883 11.5167 8.80189 11.5593 8.75128C11.602 8.70067 11.6569 8.65006 11.7117 8.59944C11.7727 8.55516 11.8336 8.51087 11.8946 8.46659C11.9738 8.41598 12.053 8.36537 12.1262 8.30843C12.2054 8.25149 12.2725 8.18823 12.3395 8.12496C12.4004 8.05537 12.4553 7.98578 12.4919 7.90354C12.5284 7.82129 12.5528 7.73905 12.5528 7.64415V7.44803C12.5528 7.32783 12.5284 7.22028 12.4797 7.13804C12.4309 7.05579 12.3639 6.9862 12.2846 6.94192C12.2054 6.8913 12.114 6.85967 12.0165 6.83437C11.9189 6.81539 11.8214 6.80273 11.7178 6.80273C11.6142 6.80273 11.5167 6.81539 11.4192 6.84069C11.3216 6.866 11.2302 6.91028 11.151 6.97355C11.0718 7.03681 11.0108 7.11906 10.962 7.22028C10.9133 7.3215 10.895 7.44803 10.895 7.59987C10.895 7.63783 10.9072 7.66946 10.9194 7.68844C10.9316 7.70742 10.9681 7.72007 11.0108 7.72007H11.2973C11.3399 7.72007 11.3704 7.70742 11.3887 7.68844C11.407 7.66946 11.4131 7.63783 11.4131 7.59987C11.4131 7.52395 11.4131 7.46068 11.4314 7.41007C11.4496 7.35946 11.4679 7.31518 11.4984 7.28354C11.5289 7.25191 11.5593 7.22661 11.602 7.21395C11.6386 7.2013 11.6812 7.19497 11.7239 7.19497C11.8275 7.19497 11.9068 7.22028 11.9616 7.26456C12.0165 7.30885 12.0469 7.37844 12.0469 7.47334V7.62517C12.0469 7.68211 12.0347 7.73272 12.0043 7.78966C11.9738 7.84027 11.9372 7.89088 11.8824 7.94149C11.8336 7.99211 11.7788 8.03639 11.7117 8.08068C11.6508 8.12496 11.5837 8.16925 11.5167 8.20721C11.4374 8.25149 11.3643 8.30843 11.2851 8.37169C11.2119 8.43496 11.1449 8.51087 11.0839 8.59312C11.023 8.67536 10.9742 8.76393 10.9377 8.86516C10.9011 8.96638 10.8828 9.07393 10.8828 9.19413V9.35229C10.8828 9.39025 10.8889 9.42188 10.9072 9.44086C10.9255 9.45984 10.956 9.47249 10.9986 9.47249H12.4919C12.5345 9.47249 12.565 9.45984 12.5833 9.44086V9.45351Z" fill="white"/>
<path d="M13.2718 9.01092H14.3019V9.3652C14.3019 9.40316 14.308 9.43479 14.3262 9.45377C14.3445 9.47275 14.375 9.4854 14.4177 9.4854H14.7041C14.7468 9.4854 14.7773 9.47275 14.7955 9.45377C14.8138 9.43479 14.8199 9.40316 14.8199 9.3652V9.01092H14.9784C15.0211 9.01092 15.0515 8.99827 15.0698 8.97929C15.0881 8.96031 15.0942 8.92867 15.0942 8.89072V8.73888C15.0942 8.70092 15.0881 8.66929 15.0698 8.65031C15.0515 8.63133 15.0211 8.61868 14.9784 8.61868H14.8199V6.99911C14.8199 6.96115 14.8138 6.92952 14.7955 6.91054C14.7773 6.89156 14.7468 6.87891 14.7041 6.87891H14.4969C14.4542 6.87891 14.4238 6.88523 14.3994 6.90421C14.3811 6.92319 14.3567 6.9485 14.3262 6.99278L13.1865 8.60603C13.1865 8.60603 13.1621 8.65664 13.1621 8.68827V8.89072C13.1621 8.92867 13.1682 8.96031 13.1865 8.97929C13.2048 8.99827 13.2352 9.01092 13.2779 9.01092H13.2718ZM14.3019 7.65706V8.61868H13.668L14.3019 7.65706Z" fill="white"/>
</g>
<defs>
<clipPath id="clip0_161_8020">
<rect width="14" height="15" fill="white" transform="translate(6 5.5)"/>
</clipPath>
</defs>
</svg>
