<svg width="49" height="50" viewBox="0 0 49 50" fill="none" xmlns="http://www.w3.org/2000/svg">
<path d="M24.5 3.125C20.0343 3.13017 15.753 4.94265 12.5953 8.16481C9.43755 11.387 7.66132 15.7557 7.65625 20.3125C7.65625 35.0195 22.9688 46.127 23.6214 46.5918C23.8789 46.7758 24.1856 46.8746 24.5 46.8746C24.8144 46.8746 25.1211 46.7758 25.3786 46.5918C26.0312 46.127 41.3438 35.0195 41.3438 20.3125C41.3387 15.7557 39.5625 11.387 36.4047 8.16481C33.247 4.94265 28.9657 3.13017 24.5 3.125ZM24.5 14.0625C25.7114 14.0625 26.8956 14.4291 27.9029 15.1158C28.9101 15.8026 29.6952 16.7787 30.1588 17.9207C30.6223 19.0628 30.7436 20.3194 30.5073 21.5318C30.271 22.7442 29.6876 23.8578 28.831 24.7319C27.9744 25.606 26.8831 26.2012 25.6949 26.4424C24.5068 26.6836 23.2753 26.5598 22.1561 26.0867C21.0369 25.6137 20.0803 24.8126 19.4072 23.7848C18.7342 22.757 18.375 21.5486 18.375 20.3125C18.375 18.6549 19.0203 17.0652 20.169 15.8931C21.3176 14.721 22.8755 14.0625 24.5 14.0625Z" fill="black"/>
</svg>
