<svg width="26" height="26" viewBox="0 0 26 26" fill="none" xmlns="http://www.w3.org/2000/svg">
<circle cx="13" cy="13" r="13" fill="#FF5C00" fill-opacity="0.5"/>
<g clip-path="url(#clip0_137_8033)">
<path d="M9.57333 5C7.88 5 6.5 6.69198 6.5 8.76668C6.5 10.2371 7.2 11.5531 8.27333 12.1641L8.08667 19.6639C8.08 20.0197 8.20667 20.3487 8.45333 20.6039C8.7 20.859 9.02667 20.9933 9.38 20.9933H9.77333C10.1267 20.9933 10.4533 20.8523 10.6933 20.6039C10.9333 20.3554 11.0667 20.0197 11.06 19.6639L10.8733 12.1641C11.9467 11.5531 12.6467 10.2304 12.6467 8.76668C12.6467 6.69198 11.2667 5 9.57333 5ZM10.1733 11.3919C9.98 11.4725 9.86 11.6605 9.86 11.8687L10.0533 19.6907C10.0533 19.7713 10.0267 19.8452 9.97333 19.9056C9.92 19.9593 9.84667 19.9929 9.76667 19.9929H9.37333C9.29333 19.9929 9.22 19.9593 9.16667 19.9056C9.11333 19.8519 9.08 19.7713 9.08667 19.6974L9.28 11.8754C9.28 11.6672 9.16 11.4792 8.96667 11.3987C8.08667 11.0361 7.5 9.98196 7.5 8.77339C7.5 7.24255 8.42667 6.00713 9.57333 6.00713C10.72 6.00713 11.6467 7.24255 11.6467 8.76668C11.6467 9.97524 11.0533 11.0294 10.18 11.3919H10.1733Z" fill="white"/>
<path d="M18.9993 5C18.7259 5 18.4993 5.22828 18.4993 5.50357V9.55225C18.4993 10.3915 17.9659 11.1368 17.1726 11.4121C16.9659 11.4859 16.8326 11.6807 16.8326 11.9022L17.0259 19.6974C17.0259 19.778 16.9993 19.8519 16.9459 19.9123C16.8926 19.966 16.8193 19.9996 16.7393 19.9996H16.3459C16.2659 19.9996 16.1926 19.966 16.1393 19.9123C16.0859 19.8586 16.0526 19.778 16.0593 19.6974L16.2526 11.9022C16.2526 11.6807 16.1193 11.4859 15.9126 11.4121C15.1193 11.1368 14.5859 10.3915 14.5859 9.55225V5.50357C14.5859 5.22828 14.3593 5 14.0859 5C13.8126 5 13.5859 5.22828 13.5859 5.50357V9.55225C13.5859 10.6937 14.2393 11.7209 15.2393 12.2178L15.0526 19.6706C15.0459 20.0264 15.1726 20.3554 15.4193 20.6106C15.6659 20.8657 15.9926 21 16.3393 21H16.7326C17.0859 21 17.4126 20.859 17.6526 20.6106C17.8926 20.3621 18.0259 20.0264 18.0193 19.6706L17.8326 12.2178C18.8393 11.7209 19.4926 10.6937 19.4926 9.55225V5.50357C19.4926 5.22828 19.2659 5 18.9926 5H18.9993Z" fill="white"/>
<path d="M15.7207 8.98825C15.994 8.98825 16.2207 8.75997 16.2207 8.48468V5.50357C16.2207 5.22828 15.994 5 15.7207 5C15.4474 5 15.2207 5.22828 15.2207 5.50357V8.48468C15.2207 8.75997 15.4474 8.98825 15.7207 8.98825Z" fill="white"/>
<path d="M17.3594 8.98825C17.6327 8.98825 17.8594 8.75997 17.8594 8.48468V5.50357C17.8594 5.22828 17.6327 5 17.3594 5C17.086 5 16.8594 5.22828 16.8594 5.50357V8.48468C16.8594 8.75997 17.086 8.98825 17.3594 8.98825Z" fill="white"/>
</g>
<defs>
<clipPath id="clip0_137_8033">
<rect width="13" height="16" fill="white" transform="translate(6.5 5)"/>
</clipPath>
</defs>
</svg>
