<svg width="26" height="26" viewBox="0 0 26 26" fill="none" xmlns="http://www.w3.org/2000/svg">
<circle cx="13" cy="13" r="13" fill="#1E98B3" fill-opacity="0.5"/>
<g clip-path="url(#clip0_163_8021)">
<g opacity="0.97">
<path d="M11.4857 15.7494H11.9997V16.2552C11.9997 16.5281 12.2296 16.7544 12.5069 16.7544C12.7842 16.7544 13.0141 16.5281 13.0141 16.2552V15.7494H13.5281C13.8054 15.7494 14.0353 15.5231 14.0353 15.2503C14.0353 14.9774 13.8054 14.7511 13.5281 14.7511H13.0141V14.2453C13.0141 13.9724 12.7842 13.7461 12.5069 13.7461C12.2296 13.7461 11.9997 13.9724 11.9997 14.2453V14.7511H11.4857C11.2085 14.7511 10.9785 14.9774 10.9785 15.2503C10.9785 15.5231 11.2085 15.7494 11.4857 15.7494Z" fill="white"/>
<path d="M19.5803 14.97C18.8972 14.5175 18.0451 14.5241 17.3823 14.9035V10.9434C17.3823 10.1581 16.7331 9.51248 15.9351 9.50582V8.6406C16.3544 8.43428 16.6452 8.00832 16.6452 7.51581V6.26456C16.6452 5.56572 16.0703 5 15.3602 5H9.64563C8.93553 5 8.36069 5.56572 8.36069 6.26456V7.51581C8.36069 8.00832 8.65149 8.42762 9.07078 8.6406V9.50582C8.27277 9.51913 7.62353 10.1581 7.62353 10.9434V16.2346C7.1028 16.3012 6.60234 16.5075 6.21686 16.8869C5.75699 17.3394 5.5 17.9451 5.5 18.5907C5.5 19.2363 5.75699 19.8353 6.21686 20.2945C6.69702 20.7671 7.31921 21 7.94815 21C8.16456 21 8.37421 20.9601 8.58386 20.9068C8.7394 20.9667 8.90848 21 9.08431 21H15.9216C16.0771 21 16.2191 20.9734 16.3611 20.9268C16.5234 20.9667 16.6858 20.9933 16.8548 20.9933C16.9901 20.9933 17.1186 20.98 17.2538 20.9534C17.7949 20.8469 18.2683 20.5408 18.5794 20.0882L19.3571 18.9501L20.1416 17.8053C20.784 16.8735 20.5338 15.6023 19.5803 14.97ZM9.37511 6.88353V6.27121C9.37511 6.12479 9.49684 6.00499 9.64563 6.00499H15.3602C15.509 6.00499 15.6307 6.12479 15.6307 6.27121V7.52246C15.6307 7.64226 15.5428 7.7421 15.4279 7.77537C15.4076 7.77537 15.3805 7.78869 15.3602 7.78869H9.64563C9.64563 7.78869 9.59829 7.78203 9.578 7.77537C9.46303 7.7421 9.37511 7.64226 9.37511 7.52246V6.88353ZM14.9274 8.78037V9.50582H10.0852V8.78037H14.9274ZM8.63796 10.9501C8.63796 10.7038 8.84085 10.5042 9.09107 10.5042H15.9283C16.1785 10.5042 16.3814 10.7038 16.3814 10.9501V12.2013H8.63796V10.9501ZM6.51443 18.5907C6.51443 18.2113 6.66321 17.8586 6.93372 17.5923C7.12308 17.406 7.36655 17.2795 7.62353 17.2196C7.73174 17.193 7.83995 17.1797 7.94815 17.1797C8.15104 17.1797 8.35392 17.2263 8.53652 17.3062L7.62353 18.2047L6.64292 19.1697C6.56177 18.99 6.51443 18.797 6.51443 18.5907ZM8.95582 19.589C8.88142 19.6622 8.78674 19.7155 8.69883 19.7754C8.38774 19.9617 8.03607 20.0283 7.6844 19.9684C7.57619 19.9484 7.46123 19.9218 7.35978 19.8819L7.62353 19.6223L8.6312 18.6306L8.94905 18.3178L9.24662 18.025C9.2872 18.1181 9.32101 18.218 9.3413 18.3178C9.36159 18.411 9.37511 18.5042 9.37511 18.604C9.37511 18.9834 9.22633 19.3361 8.95582 19.6023V19.589ZM9.9229 20.0017C10.2272 19.5957 10.3963 19.1098 10.3963 18.5907C10.3963 18.4908 10.376 18.3977 10.3693 18.3045H14.9004C14.7922 18.6306 14.7583 18.9834 14.826 19.3361C14.8733 19.5757 14.968 19.7953 15.0897 20.0017H9.9229ZM10.0108 17.3062C9.91614 17.1597 9.80793 17.0133 9.67944 16.8869C9.38864 16.6007 9.02344 16.4143 8.63796 16.3078V13.193H16.3747V16.0017L15.482 17.2995H10.0108V17.3062ZM17.7408 19.5291C17.6393 19.6755 17.5041 19.7887 17.3485 19.8686C17.2606 19.9151 17.1659 19.9551 17.0645 19.975C16.963 19.995 16.8683 19.995 16.7737 19.9884C16.5978 19.975 16.4288 19.9218 16.28 19.822C16.28 19.822 16.28 19.822 16.2732 19.822C16.0365 19.6689 15.881 19.4293 15.8269 19.1564C15.7728 18.8835 15.8269 18.604 15.9892 18.371L16.0298 18.3111L16.3747 17.812H16.3814V17.7987L16.4829 17.6456L16.7331 17.812L16.8886 17.9118L17.2538 18.1514L17.3959 18.2446L18.248 18.8103L17.7543 19.5358L17.7408 19.5291ZM19.303 17.2529L18.8025 17.985L17.3823 17.0466L17.0374 16.8203L17.3823 16.3211L17.5379 16.0882C17.7408 15.7887 18.0789 15.629 18.417 15.629C18.6199 15.629 18.8296 15.6889 19.0054 15.8087C19.4923 16.1281 19.6208 16.7804 19.2894 17.2596L19.303 17.2529Z" fill="white"/>
</g>
</g>
<defs>
<clipPath id="clip0_163_8021">
<rect width="15" height="16" fill="white" transform="translate(5.5 5)"/>
</clipPath>
</defs>
</svg>
