<svg width="26" height="26" viewBox="0 0 26 26" fill="none" xmlns="http://www.w3.org/2000/svg">
<circle cx="13" cy="13" r="13" fill="#500000" fill-opacity="0.5"/>
<g clip-path="url(#clip0_137_8041)">
<path d="M18.0523 14.8763C18.1226 14.8763 18.1871 14.8997 18.2633 14.8997C19.7752 14.8997 21.0059 13.6701 21.0059 12.1595C21.0059 10.7542 19.9393 9.60655 18.568 9.45431V8.79266C18.568 8.5526 18.3688 8.35352 18.1285 8.35352H7.43951C7.19925 8.35352 7 8.5526 7 8.79266V12.704C7 14.6948 8.18962 16.4104 9.89494 17.1833H7.43951C7.19925 17.1833 7 17.3824 7 17.6224V18.5886C7 19.3673 7.63876 20.0055 8.41817 20.0055H17.1499C17.9293 20.0055 18.568 19.3673 18.568 18.5886V17.6224C18.568 17.3824 18.3688 17.1833 18.1285 17.1833H15.6731C16.7103 16.7149 17.5542 15.8951 18.0582 14.8822L18.0523 14.8763ZM17.689 18.5827C17.689 18.8813 17.4487 19.1214 17.1499 19.1214H8.41817C8.1193 19.1214 7.87903 18.8813 7.87903 18.5827V18.0557H17.689V18.5827ZM11.9226 16.7383C9.68983 16.7383 7.87903 14.9232 7.87903 12.6981V11.2519H17.689V12.6981C17.689 13.1022 17.6304 13.4886 17.519 13.8575C17.478 13.998 17.4253 14.1385 17.3725 14.2732C17.3139 14.4079 17.2495 14.5367 17.1792 14.6655C16.4877 15.901 15.1632 16.7383 13.6513 16.7383H11.9343H11.9226ZM18.3864 14.0039C18.5036 13.5881 18.568 13.149 18.568 12.6981V10.3267C19.447 10.4731 20.1268 11.2343 20.1268 12.1536C20.1268 13.1373 19.3591 13.9336 18.3864 14.0039ZM7.87903 9.22595H17.689V10.3794H7.87903V9.22595Z" fill="white"/>
<path d="M9.35553 7.75659C9.5958 7.75659 9.79504 7.55751 9.79504 7.31744V6.43915C9.79504 6.19908 9.5958 6 9.35553 6C9.11526 6 8.91602 6.19908 8.91602 6.43915V7.31744C8.91602 7.55751 9.11526 7.75659 9.35553 7.75659Z" fill="white"/>
<path d="M12.7833 7.75659C13.0235 7.75659 13.2228 7.55751 13.2228 7.31744V6.43915C13.2228 6.19908 13.0235 6 12.7833 6C12.543 6 12.3438 6.19908 12.3438 6.43915V7.31744C12.3438 7.55751 12.543 7.75659 12.7833 7.75659Z" fill="white"/>
<path d="M16.213 7.75659C16.4532 7.75659 16.6525 7.55751 16.6525 7.31744V6.43915C16.6525 6.19908 16.4532 6 16.213 6C15.9727 6 15.7734 6.19908 15.7734 6.43915V7.31744C15.7734 7.55751 15.9727 7.75659 16.213 7.75659Z" fill="white"/>
</g>
<defs>
<clipPath id="clip0_137_8041">
<rect width="14" height="14" fill="white" transform="translate(7 6)"/>
</clipPath>
</defs>
</svg>
